<svg width="4500.000000" height="3000.000000" viewBox="0 0 4500 3000" fill="none" xmlns="http://www.w3.org/2000/svg" xmlns:xlink="http://www.w3.org/1999/xlink">
	<desc>
			Created with Pixso.
	</desc>
	<defs>
		<linearGradient x1="63.165283" y1="134.998291" x2="4441.085938" y2="2778.904541" id="paint_linear_103_794_0" gradientUnits="userSpaceOnUse">
			<stop stop-color="#50BEE9"/>
			<stop offset="1.000000" stop-color="#EE8FC8"/>
		</linearGradient>
	</defs>
	<mask id="mask103_793" mask-type="alpha" maskUnits="userSpaceOnUse" x="0.000000" y="0.000000" width="4500.000000" height="3000.000000">
		<g style="mix-blend-mode:normal">
			<rect id="Rectangle 2905" width="4500.000000" height="3000.000000" fill="#FFFFFF" fill-opacity="1.000000"/>
			<rect id="Rectangle 2905" x="0.500000" y="0.500000" width="4499.000000" height="2999.000000" stroke="#707070" stroke-opacity="0" stroke-width="1.000000"/>
		</g>
	</mask>
	<g mask="url(#mask103_793)">
		<g style="mix-blend-mode:normal">
			<path id="Path 1249" d="M-142.59 1415.13C-142.59 1415.13 -255.87 2138.01 614.27 2113.04C1484.42 2088.07 1999.53 1950.71 2688 2474.99C2953.71 2677.34 3328.4 2810.63 3629.94 2778.73C4109.72 2727.99 4503.63 2274.63 4503.63 2274.63L4517.5 -245.53L-38.51 28.5L-142.59 1415.13Z" fill="url(#paint_linear_103_794_0)" fill-opacity="1.000000" fill-rule="nonzero"/>
			<path id="Path 1249" d="M614.27 2113.04C1484.42 2088.07 1999.53 1950.71 2688 2474.99C2953.71 2677.34 3328.4 2810.63 3629.94 2778.73C4109.72 2727.99 4503.63 2274.63 4503.63 2274.63L4517.5 -245.53L-38.51 28.5L-142.59 1415.13C-142.59 1415.13 -255.87 2138.01 614.27 2113.04Z" stroke="#707070" stroke-opacity="0" stroke-width="1.000000"/>
		</g>
	</g>
	<g mask="url(#mask103_793)">
		<g opacity="0.200000" style="mix-blend-mode:screen">
			<path id="Path 2313" d="M3726.03 925.84C3679.71 928.05 3563.87 927.2 3411.52 917.25C3306.94 910.42 3203.97 887.48 3109.71 850.01C3083.6 839.64 3057.82 828.05 3029.55 822.64C2991.57 815.36 2951.92 819.7 2912.94 821C2836.96 823.52 2760.4 814.15 2688.69 793.57C2664.47 786.62 2637.46 775.13 2633.46 754.5C2628.37 728.17 2663.66 709.33 2694.49 700.3C2725.35 691.27 2762.37 680.13 2769.03 654.03C2772.02 642.3 2768 629.05 2775.81 618.89C2781.15 611.95 2790.82 608.18 2800.07 604.94C2902.49 569.06 3013.81 555.04 3124.6 551.28C3148.89 550.46 3173.92 551.17 3199.18 552.06C3499.64 470.04 4179.35 380.53 4479.81 298.51C4196.52 296.01 3533.96 301 3250.67 298.51C2990.02 384.77 2801.15 402 2673.46 400.42C2638.19 399.98 2602.92 400.51 2567.67 399.64C2419.96 396 2261.17 384.27 2135.05 446.89C2118.67 455.02 2102.15 465.4 2096.78 480.37C2083.46 517.32 2141.52 542.56 2187.44 551.99C2194.69 577.61 2153.09 592.15 2121.25 596.74C2018.62 611.51 1917.55 633.42 1819.5 662.14C1749.97 682.51 1672.77 715.04 1659.08 774.09C1649.45 815.61 1676.9 858.57 1717.4 885.07C1757.88 911.56 1809.42 924.15 1860.45 932.2C2034.17 959.57 2213.8 940.78 2389.95 954.45C2413.46 956.27 2438.01 959.01 2457.12 970.26C2487.37 988.05 2495.49 1021.4 2516.64 1046.41C2558.65 1096.06 2642.85 1105.14 2716.86 1108.42C2881.66 1115.73 3046.89 1116.81 3211.8 1111.68C3253.35 1110.4 3295.7 1108.78 3335.83 1117.65C3378.03 1126.96 3415.04 1147.25 3454.14 1163.17C3547.1 1201.03 3651.86 1214.18 3754.63 1226.94C3860.08 1240.05 3966.43 1253.24 4072.87 1251.13C4125.54 1258.99 4205.94 1276.32 4291.95 1318.04C4368.36 1355.09 4446.74 1427.29 4479.81 1458.57C4488.33 1345.28 4471.29 1202.5 4479.81 1089.22C4115.62 942.85 3878.43 918.55 3726.03 925.84Z" fill="#50BEE9" fill-opacity="1.000000" fill-rule="nonzero"/>
		</g>
	</g>
	<g mask="url(#mask103_793)">
		<g opacity="0.200000" style="mix-blend-mode:screen">
			<path id="Path 2313" d="M756.24 1613.72C802.55 1611.5 918.4 1612.36 1070.75 1622.31C1175.32 1629.14 1278.3 1652.08 1372.56 1689.55C1398.67 1699.92 1424.45 1711.5 1452.72 1716.92C1490.7 1724.2 1530.35 1719.86 1569.33 1718.56C1645.31 1716.04 1721.87 1725.4 1793.58 1745.99C1817.8 1752.94 1844.81 1764.43 1848.81 1785.06C1853.9 1811.39 1818.62 1830.22 1787.78 1839.26C1756.92 1848.29 1719.9 1859.43 1713.24 1885.53C1710.25 1897.26 1714.27 1910.51 1706.46 1920.67C1701.12 1927.61 1691.45 1931.38 1682.2 1934.62C1579.78 1970.5 1468.46 1984.52 1357.67 1988.28C1333.39 1989.1 1308.35 1988.39 1283.09 1987.5C982.63 2069.52 682.18 2151.54 381.72 2233.56C665.01 2236.06 948.31 2238.56 1231.6 2241.05C1492.25 2154.79 1681.12 2137.56 1808.81 2139.13C1844.08 2139.57 1879.35 2139.05 1914.6 2139.92C2062.31 2143.55 2221.1 2155.29 2347.22 2092.67C2363.6 2084.54 2380.11 2074.15 2385.49 2059.19C2398.81 2022.23 2340.75 1997 2294.83 1987.57C2287.58 1961.95 2329.18 1947.41 2361.02 1942.82C2463.64 1928.05 2564.72 1906.14 2662.77 1877.42C2732.31 1857.05 2809.5 1824.52 2823.19 1765.47C2832.82 1723.95 2805.37 1680.99 2764.88 1654.49C2724.39 1628 2672.85 1615.4 2621.82 1607.36C2448.1 1579.99 2268.47 1598.77 2092.32 1585.11C2068.81 1583.29 2044.26 1580.54 2025.14 1569.3C1994.9 1551.51 1986.78 1518.16 1965.62 1493.15C1923.62 1443.5 1839.42 1434.43 1765.41 1431.15C1600.61 1423.84 1435.38 1422.74 1270.47 1427.87C1228.92 1429.16 1186.56 1430.78 1146.43 1421.92C1104.24 1412.6 1067.23 1392.32 1028.13 1376.4C935.16 1338.54 830.41 1325.38 727.63 1312.61C622.18 1299.51 515.83 1286.31 409.4 1288.43C356.72 1280.57 276.32 1263.24 190.31 1221.53C113.91 1184.47 35.53 1112.28 2.46 1081C-6.06 1194.28 10.97 1337.06 2.46 1450.34C366.65 1596.71 603.84 1621.01 756.24 1613.72Z" fill="#50BEE9" fill-opacity="1.000000" fill-rule="nonzero"/>
		</g>
	</g>
	<g mask="url(#mask103_793)">
		<g opacity="0.200000" style="mix-blend-mode:screen">
			<path id="Path 2313" d="M11166.3 -5926.71C11117 -5922.18 10993.7 -5923.94 10831.5 -5944.27C10720.2 -5958.24 10610.6 -6005.14 10510.2 -6081.75C10482.4 -6102.97 10455 -6126.64 10424.9 -6137.72C10384.5 -6152.6 10342.3 -6143.72 10300.8 -6141.08C10219.9 -6135.92 10138.4 -6155.07 10062.1 -6197.15C10036.3 -6211.36 10007.5 -6234.86 10003.3 -6277.04C9997.84 -6330.88 10035.4 -6369.38 10068.2 -6387.85C10101.1 -6406.32 10140.5 -6429.1 10147.6 -6482.47C10150.8 -6506.45 10146.5 -6533.54 10154.8 -6554.31C10160.5 -6568.5 10170.8 -6576.21 10180.6 -6582.83C10289.6 -6656.19 10408.1 -6684.86 10526.1 -6692.54C10551.9 -6694.22 10578.6 -6692.77 10605.5 -6690.95C10925.3 -6858.65 11245.1 -7026.35 11564.9 -7194.05C11263.4 -7199.16 10961.8 -7204.27 10660.3 -7209.38C10382.8 -7032.99 10181.8 -6997.77 10045.8 -7001C10008.3 -7001.89 9970.76 -7000.81 9933.23 -7002.58C9776 -7010.03 9606.97 -7034.02 9472.72 -6905.99C9455.29 -6889.37 9437.71 -6868.15 9431.98 -6837.53C9417.8 -6761.97 9479.61 -6710.37 9528.48 -6691.09C9536.2 -6638.72 9491.92 -6608.98 9458.03 -6599.6C9348.78 -6569.4 9241.2 -6524.6 9136.82 -6465.88C9062.8 -6424.24 8980.63 -6357.72 8966.05 -6236.99C8955.8 -6152.08 8985.03 -6064.26 9028.13 -6010.08C9071.23 -5955.9 9126.09 -5930.16 9180.42 -5913.71C9365.33 -5857.74 9556.55 -5896.16 9744.05 -5868.22C9769.08 -5864.49 9795.21 -5858.88 9815.55 -5835.89C9847.76 -5799.52 9856.4 -5731.33 9878.93 -5680.2C9923.63 -5578.68 10013.3 -5560.13 10092 -5553.42C10267.5 -5538.47 10443.3 -5536.24 10618.9 -5546.72C10663.1 -5549.36 10708.2 -5552.67 10750.9 -5534.55C10795.8 -5515.5 10835.2 -5474.02 10876.9 -5441.47C10975.8 -5364.06 11087.3 -5337.17 11196.7 -5311.06C11309 -5284.28 11422.2 -5257.3 11535.5 -5261.62C11591.6 -5245.56 11677.1 -5210.1 11768.7 -5124.83C11850 -5049.07 11906.3 -4961.76 11941.5 -4897.8C11950.5 -5129.44 11959.6 -5361.05 11968.7 -5592.67C11581 -5891.94 11328.5 -5941.61 11166.3 -5926.71Z" fill="#FFFFFF" fill-opacity="1.000000" fill-rule="nonzero"/>
		</g>
	</g>
	<g mask="url(#mask103_793)">
		<g opacity="0.500000" style="mix-blend-mode:overlay">
			<g style="mix-blend-mode:normal">
				<path id="Path 2314" d="M4098.95 1896.93C4098.95 1896.93 4091.89 2011.32 4037.06 2019.24C4091.89 2027.14 4098.95 2141.54 4098.95 2141.54C4098.95 2141.54 4105.99 2027.14 4160.81 2019.24C4105.99 2011.32 4098.95 1896.93 4098.95 1896.93Z" fill="#FFFFFF" fill-opacity="1.000000" fill-rule="nonzero"/>
			</g>
			<g style="mix-blend-mode:normal">
				<path id="Path 2315" d="M144 1844.87C217.01 1834.33 226.4 1682 226.4 1682C226.4 1682 235.79 1834.33 308.81 1844.87C235.79 1855.4 226.4 2007.74 226.4 2007.74C226.4 2007.74 217.01 1855.4 144 1844.87ZM308.81 2292.12C381.83 2281.58 391.22 2129.25 391.22 2129.25C391.22 2129.25 400.61 2281.58 473.63 2292.12C400.61 2302.64 391.22 2454.99 391.22 2454.99C391.22 2454.99 381.83 2302.64 308.81 2292.12Z" fill="#FFFFFF" fill-opacity="1.000000" fill-rule="evenodd"/>
			</g>
			<g style="mix-blend-mode:normal">
				<path id="Path 2317" d="M3857.73 2845.01C3886.98 2845.01 3887.02 2770.17 3857.73 2770.17C3828.48 2770.17 3828.42 2845.01 3857.73 2845.01Z" fill="#FFFFFF" fill-opacity="1.000000" fill-rule="nonzero"/>
			</g>
			<g style="mix-blend-mode:normal">
				<path id="Path 2318" d="M3317.21 3292C3331.84 3292 3331.86 3254.58 3317.21 3254.58C3302.56 3254.58 3302.54 3292 3317.21 3292Z" fill="#FFFFFF" fill-opacity="1.000000" fill-rule="nonzero"/>
			</g>
			<g style="mix-blend-mode:normal">
				<path id="Path 2319" d="M4150.72 2493.65C4165.34 2493.65 4165.36 2456.24 4150.72 2456.24C4136.1 2456.24 4136.06 2493.65 4150.72 2493.65Z" fill="#FFFFFF" fill-opacity="1.000000" fill-rule="nonzero"/>
			</g>
			<g style="mix-blend-mode:normal">
				<path id="Path 2320" d="M3706.18 1662.06C3720.82 1662.06 3720.83 1624.63 3706.18 1624.63C3691.55 1624.63 3691.52 1662.06 3706.18 1662.06Z" fill="#FFFFFF" fill-opacity="1.000000" fill-rule="nonzero"/>
			</g>
			<g style="mix-blend-mode:normal">
				<path id="Path 2321" d="M1321.78 664.12C1336.42 664.12 1336.44 626.7 1321.78 626.7C1307.16 626.7 1307.14 664.12 1321.78 664.12Z" fill="#FFFFFF" fill-opacity="1.000000" fill-rule="nonzero"/>
			</g>
			<g style="mix-blend-mode:normal">
				<path id="Path 2324" d="M1336.94 190.11C1351.57 190.11 1351.6 152.69 1336.94 152.69C1322.31 152.69 1322.29 190.11 1336.94 190.11Z" fill="#FFFFFF" fill-opacity="1.000000" fill-rule="nonzero"/>
			</g>
			<g style="mix-blend-mode:normal">
				<path id="Path 2325" d="M1170.23 180.75C1177.54 180.75 1177.56 162.04 1170.23 162.04C1162.92 162.04 1162.91 180.75 1170.23 180.75Z" fill="#FFFFFF" fill-opacity="1.000000" fill-rule="nonzero"/>
			</g>
			<g style="mix-blend-mode:normal">
				<path id="Path 2326" d="M468.05 1777.44C475.36 1777.44 475.38 1758.73 468.05 1758.73C460.73 1758.73 460.72 1777.44 468.05 1777.44Z" fill="#FFFFFF" fill-opacity="1.000000" fill-rule="nonzero"/>
			</g>
			<g style="mix-blend-mode:normal">
				<path id="Path 2327" d="M882.29 1712.99C904.23 1712.99 904.26 1656.85 882.29 1656.85C860.34 1656.85 860.31 1712.99 882.29 1712.99Z" fill="#FFFFFF" fill-opacity="1.000000" fill-rule="nonzero"/>
			</g>
			<g style="mix-blend-mode:normal">
				<path id="Path 2328" d="M58.86 2726.49C73.49 2726.49 73.51 2689.08 58.86 2689.08C44.23 2689.08 44.21 2726.49 58.86 2726.49Z" fill="#FFFFFF" fill-opacity="1.000000" fill-rule="nonzero"/>
			</g>
			<g style="mix-blend-mode:normal">
				<path id="Path 2329" d="M3625.34 612.67C3658.26 612.67 3658.31 528.47 3625.34 528.47C3592.44 528.47 3592.39 612.67 3625.34 612.67Z" fill="#FFFFFF" fill-opacity="1.000000" fill-rule="nonzero"/>
			</g>
			<g style="mix-blend-mode:normal">
				<path id="Path 2330" d="M3054.52 -0.12C3076.46 -0.12 3076.49 -56.25 3054.52 -56.25C3032.57 -56.25 3032.53 -0.12 3054.52 -0.12Z" fill="#FFFFFF" fill-opacity="1.000000" fill-rule="nonzero"/>
			</g>
			<g style="mix-blend-mode:normal">
				<path id="Path 2331" d="M2544.29 215.05C2558.9 215.05 2558.95 177.64 2544.29 177.64C2529.67 177.64 2529.63 215.05 2544.29 215.05Z" fill="#FFFFFF" fill-opacity="1.000000" fill-rule="nonzero"/>
			</g>
			<g style="mix-blend-mode:normal">
				<path id="Path 2332" d="M3428.34 351.75C3439.3 351.75 3439.32 323.69 3428.34 323.69C3417.36 323.69 3417.35 351.75 3428.34 351.75Z" fill="#FFFFFF" fill-opacity="1.000000" fill-rule="nonzero"/>
			</g>
			<g style="mix-blend-mode:normal">
				<path id="Path 2333" d="M3872.87 792.51C3883.85 792.51 3883.87 764.44 3872.87 764.44C3861.91 764.44 3861.9 792.51 3872.87 792.51Z" fill="#FFFFFF" fill-opacity="1.000000" fill-rule="nonzero"/>
			</g>
			<g style="mix-blend-mode:normal">
				<path id="Path 2334" d="M3448.54 1632.43C3459.51 1632.43 3459.53 1604.36 3448.54 1604.36C3437.57 1604.36 3437.55 1632.43 3448.54 1632.43Z" fill="#FFFFFF" fill-opacity="1.000000" fill-rule="nonzero"/>
			</g>
			<g style="mix-blend-mode:normal">
				<path id="Path 2335" d="M1645.09 1682.32C1656.06 1682.32 1656.08 1654.25 1645.09 1654.25C1634.12 1654.25 1634.1 1682.32 1645.09 1682.32Z" fill="#FFFFFF" fill-opacity="1.000000" fill-rule="nonzero"/>
			</g>
		</g>
	</g>
</svg>
