<svg width="202.000061" height="210.000000" viewBox="0 0 202 210" fill="none" xmlns="http://www.w3.org/2000/svg" xmlns:xlink="http://www.w3.org/1999/xlink">
	<desc>
			Created with Pixso.
	</desc>
	<defs/>
	<g style="mix-blend-mode:normal">
		<path id="mommynote@gmail.com" d="M49.17 99.87Q47.71 104.84 47.06 107Q49.21 108.87 50.57 109.43Q50.79 109.52 51.01 109.55Q52.2 109.73 53.62 108.31Q54.37 104.18 54.93 100.62Q55.4 97.62 55.92 94.62Q56.43 91.62 56.62 90.31Q56.72 89.76 56.92 89.26Q57.49 87.86 58.87 86.79Q60.75 85.34 63.46 84.31Q66.18 83.28 69.42 82.57Q72.65 81.87 75.84 81.35Q79.03 80.84 81.93 80.32Q84.84 79.81 86.81 79.25L97.59 106.81Q99.65 108.03 100.78 108.17Q101.9 108.31 102.46 107.89Q102.7 107.71 102.87 107.48Q103.11 107.17 103.21 106.76Q103.4 106.06 103.59 105.59L93.18 77.84Q93.18 77.56 94.03 77.28Q94.87 77 96.09 76.71Q97.31 76.43 98.53 76.1Q99.75 75.78 100.5 75.5Q102.37 74.84 103.12 73.76Q103.87 72.68 103.78 71.75Q103.75 71.46 103.65 71.21Q103.43 70.61 102.84 70.15Q102.67 70.02 102.49 69.92Q101.75 69.5 100.78 69.5L91.21 72.4L72.75 27.5Q72.77 27.33 72.74 27.17Q72.66 26.71 72.14 26.32Q71.43 25.81 70.4 25.67Q70.09 25.62 69.78 25.62Q69.06 25.62 68.34 25.85Q67.84 26.01 67.46 26.31Q67.04 26.63 66.75 27.12Q62.15 47.93 58.73 62.18Q55.31 76.43 52.96 85.67Q50.62 94.9 49.17 99.87ZM151.78 37.34L180.75 75.4L171.56 106.15Q171.56 106.83 171.9 107.18Q172.26 107.56 173.01 107.56L175.87 107.56Q178.5 99.96 180.28 94.85Q182.06 89.75 183.18 86.37Q184.31 83 184.92 80.93Q185.53 78.87 185.95 77.37Q186.37 75.87 186.75 74.51Q187.12 73.15 187.64 71.18Q188.15 69.21 189.04 66.31Q189.93 63.4 191.43 58.67Q192.93 53.93 195.18 47.09Q197.43 40.25 200.71 30.4Q200.71 29.84 200.25 29.04Q199.92 28.48 199.47 28.04Q199.28 27.85 199.07 27.68Q198.39 27.14 197.62 26.94Q197.6 26.94 197.57 26.93Q197.28 26.86 197 26.91Q196.53 26.99 196.12 27.4Q195.65 30.03 194.62 33.82Q193.59 37.62 192.23 41.93Q190.87 46.25 189.37 50.6Q187.87 54.96 186.56 58.62Q185.25 62.28 184.26 64.9Q183.28 67.53 182.9 68.28L155.43 34.71Q154.4 34.71 153.09 35.42Q152.19 35.9 151.91 36.62Q151.78 36.95 151.78 37.34ZM2.76 34.39Q3 35.65 3.46 37.25L3.28 107.56Q3.28 107.65 3.75 107.75Q4.21 107.84 4.4 107.84Q6.14 108.13 6.85 107.41Q7.05 107.2 7.17 106.9Q7.68 105.59 7.96 103.53Q8.34 100.71 8.39 97.62Q8.43 94.53 8.48 91.39Q8.53 88.25 8.62 85.15Q8.71 82.06 9.09 79.15Q9.84 76.34 12.93 73.71Q16.03 71.09 20.15 69.07Q24.28 67.06 28.87 65.79Q33.46 64.53 37.21 64.53Q40.96 64.53 43.17 65.98Q43.85 66.43 44.27 67.05Q45.23 68.44 44.9 70.71Q44.53 73.15 42.09 76.39Q39.65 79.62 36.14 83.09Q32.62 86.56 28.59 89.98Q24.56 93.4 21.04 96.07Q17.53 98.75 15 100.39Q12.46 102.03 12 101.93L14.25 105.68Q15.18 105.87 17.34 104.89Q19.5 103.9 22.35 101.98Q25.21 100.06 28.59 97.43Q31.96 94.81 35.29 91.71Q38.62 88.62 41.67 85.29Q44.71 81.96 46.96 78.68Q49.21 75.4 50.43 72.35Q51.65 69.31 51.37 66.87Q50.62 64.19 48.9 62.5Q48.03 61.65 46.92 61.06Q43.59 59.28 39.42 59Q35.25 58.71 30.93 59.6Q26.62 60.5 23.43 61.71Q24.37 60.5 26.15 58.62Q27.93 56.75 29.95 54.45Q31.96 52.15 34.07 49.53Q36.18 46.9 37.87 44.18Q39.56 41.46 40.64 38.75Q41.71 36.03 41.71 33.5Q41.82 32.75 41.61 32.1Q41.45 31.62 41.1 31.2Q40.31 30.21 39.14 29.51Q37.96 28.81 36.6 28.39Q35.25 27.96 34.21 27.87Q31.12 27.5 27.75 28.01Q24.37 28.53 21.04 29.6Q17.71 30.68 14.62 32.23Q11.53 33.78 9 35.28Q8.9 34.71 8.62 33.87Q8.34 33.03 7.92 32.09Q7.5 31.15 6.93 30.45Q6.37 29.75 5.81 29.46Q4.87 29.09 4.31 29.23Q3.75 29.37 3.42 29.7Q3.09 30.03 2.95 30.59Q2.81 31.15 2.71 31.62Q2.53 33.12 2.76 34.39ZM106.26 34.39Q106.5 35.65 106.96 37.25L106.78 107.56Q106.78 107.65 107.25 107.75Q107.71 107.84 107.9 107.84Q109.64 108.13 110.35 107.41Q110.55 107.2 110.67 106.9Q111.18 105.59 111.46 103.53Q111.84 100.71 111.89 97.62Q111.93 94.53 111.98 91.39Q112.03 88.25 112.12 85.15Q112.21 82.06 112.59 79.15Q113.34 76.34 116.43 73.71Q119.53 71.09 123.65 69.07Q127.78 67.06 132.37 65.79Q136.96 64.53 140.71 64.53Q144.46 64.53 146.67 65.98Q147.35 66.43 147.77 67.05Q148.73 68.44 148.4 70.71Q148.03 73.15 145.59 76.39Q143.15 79.62 139.64 83.09Q136.12 86.56 132.09 89.98Q128.06 93.4 124.54 96.07Q121.03 98.75 118.5 100.39Q115.96 102.03 115.5 101.93L117.75 105.68Q118.68 105.87 120.84 104.89Q123 103.9 125.85 101.98Q128.71 100.06 132.09 97.43Q135.46 94.81 138.79 91.71Q142.12 88.62 145.17 85.29Q148.21 81.96 150.46 78.68Q152.71 75.4 153.93 72.35Q155.15 69.31 154.87 66.87Q154.12 64.19 152.4 62.5Q151.53 61.65 150.42 61.06Q147.09 59.28 142.92 59Q138.75 58.71 134.43 59.6Q130.12 60.5 126.93 61.71Q127.87 60.5 129.65 58.62Q131.43 56.75 133.45 54.45Q135.46 52.15 137.57 49.53Q139.68 46.9 141.37 44.18Q143.06 41.46 144.14 38.75Q145.21 36.03 145.21 33.5Q145.32 32.75 145.11 32.1Q144.95 31.62 144.6 31.2Q143.81 30.21 142.64 29.51Q141.46 28.81 140.1 28.39Q138.75 27.96 137.71 27.87Q134.62 27.5 131.25 28.01Q127.87 28.53 124.54 29.6Q121.21 30.68 118.12 32.23Q115.03 33.78 112.5 35.28Q112.4 34.71 112.12 33.87Q111.84 33.03 111.42 32.09Q111 31.15 110.43 30.45Q109.87 29.75 109.31 29.46Q108.37 29.09 107.81 29.23Q107.25 29.37 106.92 29.7Q106.59 30.03 106.45 30.59Q106.31 31.15 106.21 31.62Q106.03 33.12 106.26 34.39ZM8.76 49.34Q8.9 46.43 9.18 44.56Q9.27 43.88 9.48 43.23Q9.92 41.84 10.92 40.62Q12.37 38.84 14.53 37.48Q16.68 36.12 19.31 35.18Q21.93 34.25 24.56 33.73Q27.18 33.21 29.57 33.07Q31.96 32.93 33.65 33.12Q34.4 33.76 34.76 34.57Q35.3 35.79 34.96 37.39Q34.4 40.06 32.29 43.29Q30.18 46.53 27 50Q23.81 53.46 20.48 56.6Q17.15 59.75 14.2 62.28Q11.25 64.81 9.56 66.21Q9.09 64.25 8.85 61.34Q8.62 58.43 8.62 55.34Q8.62 52.25 8.76 49.34ZM112.26 49.34Q112.4 46.43 112.68 44.56Q112.77 43.88 112.98 43.23Q113.42 41.84 114.42 40.62Q115.87 38.84 118.03 37.48Q120.18 36.12 122.81 35.18Q125.43 34.25 128.06 33.73Q130.68 33.21 133.07 33.07Q135.46 32.93 137.15 33.12Q137.9 33.76 138.26 34.57Q138.8 35.79 138.46 37.39Q137.9 40.06 135.79 43.29Q133.68 46.53 130.5 50Q127.31 53.46 123.98 56.6Q120.65 59.75 117.7 62.28Q114.75 64.81 113.06 66.21Q112.59 64.25 112.35 61.34Q112.12 58.43 112.12 55.34Q112.12 52.25 112.26 49.34ZM60.65 79.15L70.59 37.43L83.81 73.43Q81.09 74.28 77.76 75.03Q74.43 75.78 71.15 76.53Q67.87 77.28 65.06 77.93Q62.25 78.59 60.65 79.15Z" fill="#50BEE9" fill-opacity="1.000000" fill-rule="evenodd"/>
	</g>
	<g style="mix-blend-mode:normal">
		<path id="mommynote@gmail.com" d="M64.15 184.25Q63.18 187.56 62.75 189Q64.18 190.25 65.09 190.62Q65.23 190.68 65.38 190.7Q66.17 190.82 67.12 189.87Q67.62 187.12 68 184.75Q68.31 182.75 68.65 180.75Q69 178.75 69.12 177.87Q69.19 177.51 69.32 177.17Q69.7 176.24 70.62 175.53Q71.87 174.56 73.68 173.87Q75.5 173.18 77.65 172.71Q79.81 172.25 81.93 171.9Q84.06 171.56 86 171.21Q87.93 170.87 89.25 170.5L96.43 188.87Q97.81 189.68 98.56 189.78Q99.31 189.87 99.68 189.59Q99.84 189.47 99.95 189.32Q100.11 189.11 100.18 188.84Q100.31 188.37 100.43 188.06L93.5 169.56Q93.5 169.37 94.06 169.18Q94.62 169 95.43 168.81Q96.25 168.62 97.06 168.4Q97.87 168.18 98.37 168Q99.62 167.56 100.12 166.84Q100.62 166.12 100.56 165.5Q100.54 165.31 100.47 165.14Q100.33 164.74 99.93 164.43Q99.82 164.35 99.7 164.28Q99.21 164 98.56 164L92.18 165.93L79.87 136Q79.89 135.88 79.87 135.78Q79.81 135.47 79.46 135.21Q79 134.87 78.31 134.78Q78.1 134.75 77.9 134.75Q77.41 134.75 76.93 134.9Q76.6 135.01 76.35 135.2Q76.07 135.42 75.87 135.75Q72.81 149.62 70.53 159.12Q68.25 168.62 66.68 174.78Q65.12 180.93 64.15 184.25ZM139.4 175.37Q139.18 181.62 139.18 187.62Q139.87 188.37 140.4 188.65Q140.93 188.93 141.81 189.06Q144.18 188.87 147.62 187.96Q151.06 187.06 154.71 185.84Q158.37 184.62 161.81 183.31Q165.25 182 167.68 180.93Q168.37 180.62 168.53 180.15Q168.62 179.88 168.59 179.62Q168.58 179.43 168.5 179.25Q168.31 178.81 167.87 178.46Q167.68 178.31 167.46 178.21Q167.18 178.09 166.87 178.06Q165.68 178.12 163.78 178.75Q161.87 179.37 159.62 180.18Q157.37 181 154.93 181.9Q152.5 182.81 150.31 183.43Q148.12 184.06 146.34 184.28Q144.56 184.5 143.62 183.93L144.06 167.5Q144.06 167.46 144.06 167.42Q144.12 166.53 145.56 165.71Q147.06 164.87 149.28 164.06Q151.5 163.25 154.09 162.46Q156.68 161.68 158.9 160.81Q161.12 159.93 162.62 158.9Q163.94 157.99 164.1 156.91Q164.12 156.77 164.12 156.62Q163.56 155.75 162.96 155.68Q162.63 155.65 162.32 155.71Q162.07 155.76 161.84 155.87Q161.31 156.12 160.93 156.5L160.56 156.87L143.18 162.93Q142.87 158.81 142.65 154.81Q142.43 150.81 142.43 146.75L166.12 140.31Q166.75 140.11 167.13 139.7Q167.25 139.57 167.34 139.43Q167.72 138.85 167.77 138.23Q167.77 138.19 167.78 138.15Q167.8 137.76 167.68 137.41Q167.6 137.18 167.46 136.96Q167.24 136.61 166.91 136.44Q166.75 136.35 166.56 136.31L142.5 142.31Q142.5 141.87 142.4 140.9Q142.31 139.93 142.03 138.87Q141.75 137.81 141.21 136.9Q140.74 136.09 140.03 135.75Q139.95 135.71 139.87 135.68Q139.59 135.58 139.33 135.6Q139.11 135.62 138.9 135.71Q138.76 135.78 138.63 135.86Q138.32 136.04 138.06 136.31Q137.88 136.49 137.73 136.69Q137.56 136.91 137.43 137.15Q137.18 137.62 137.18 137.93Q138.56 143.93 139.06 150.18Q139.56 156.43 139.59 162.78Q139.62 169.12 139.4 175.37ZM102.13 136.66Q102.13 136.67 102.12 136.68L102.62 189Q102.81 189.31 103.06 189.59Q103.28 189.84 103.55 189.92Q103.59 189.93 103.62 189.93Q103.93 190 104.46 189.81Q105 189.62 105.75 189L105.75 168.25L133.31 184.12Q133.68 184.16 134.02 184.08Q134.66 183.93 135.18 183.34Q135.88 182.56 135.98 181.71Q136 181.57 136 181.43L106.68 163.81Q108 162.43 110.59 160.78Q113.18 159.12 116.21 157.28Q119.25 155.43 122.43 153.43Q125.62 151.43 128.18 149.5Q130.75 147.56 132.28 145.65Q133.81 143.75 133.65 142.09Q133.65 142.04 133.64 142Q133.43 140.39 131.18 139.06Q128.87 137.68 123.75 136.68Q120.43 136.31 117.75 136.81Q115.06 137.31 112.9 138.06Q110.75 138.81 109.12 139.59Q107.5 140.37 106.31 140.62L105.93 137.18Q105.83 136.55 105.46 136.21Q105.39 136.14 105.31 136.09Q105.17 135.99 105.01 135.92Q104.62 135.75 104.15 135.75Q103.75 135.75 103.36 135.84Q103.13 135.9 102.9 136Q102.33 136.24 102.13 136.66ZM33.21 170.43Q32.75 174.31 32.75 176.56Q32.75 178.37 33.21 180.53Q33.62 182.4 34.45 184.05Q34.58 184.31 34.71 184.56Q35.45 185.89 36.48 186.92Q36.9 187.34 37.37 187.71Q37.87 188.11 38.43 188.38Q39.69 189 41.25 189Q42.5 189.62 44.53 189.09Q46.56 188.56 48.93 187.18Q51.31 185.81 53.78 183.78Q56.25 181.75 58.34 179.4Q60.43 177.06 61.96 174.59Q63.5 172.12 63.93 169.87Q63.93 169.13 63.57 168.81Q63.41 168.68 63.18 168.62Q62.43 168.43 61.62 168.43Q61.5 168.43 61 168.46Q60.5 168.5 60.37 168.56Q59.62 170.81 57.9 173.59Q56.18 176.37 53.9 178.81Q51.62 181.25 48.9 182.87Q46.45 184.33 43.93 184.48Q43.65 184.5 43.37 184.5Q41 184.5 39.68 183.65Q39.08 183.26 38.61 182.75Q38.07 182.15 37.71 181.37Q37.06 179.93 36.9 178.09Q36.75 176.25 36.75 174.25Q36.75 172.75 37.12 169.62Q37.5 166.5 38.25 162.65Q39 158.81 40.12 154.75Q41.25 150.68 42.75 147.37Q44.25 144.06 46.12 141.9Q47.66 140.13 49.46 139.81Q49.85 139.75 50.25 139.75Q50.52 139.82 50.76 139.96Q51.33 140.29 51.68 141Q52.18 142 52.71 142.9Q53.09 143.55 53.65 143.96Q53.87 144.12 54.12 144.25Q55 144.68 56.68 143.87Q56.68 142.31 56.31 140.93Q55.96 139.67 55.25 138.67Q55.19 138.58 55.12 138.5Q54.81 138.09 54.45 137.75Q53.85 137.2 53.09 136.81Q51.87 136.18 50.18 136.18Q49.38 136.18 48.61 136.35Q46.52 136.82 44.71 138.56Q42.25 140.93 40.31 144.65Q38.37 148.37 36.93 152.96Q35.5 157.56 34.59 162.06Q33.68 166.56 33.21 170.43ZM106.12 148.31Q106.18 146.56 106.31 145.31Q107.56 143.68 109.75 142.56Q111.93 141.43 114.46 140.78Q117 140.12 119.53 139.87Q122.06 139.62 123.93 139.75Q127.31 140.37 128.4 141.46Q128.99 142.06 129.11 142.73Q129.21 143.3 128.96 143.93Q128.43 145.31 126.59 146.9Q124.75 148.5 122.31 150.12Q119.87 151.75 117.15 153.28Q114.43 154.81 112.06 156.06Q109.68 157.31 108.03 158.15Q106.37 159 106.06 159.31L106.06 152.03Q106.06 150.06 106.12 148.31ZM71.81 170.43L78.43 142.62L87.25 166.62Q85.43 167.18 83.21 167.68Q81 168.18 78.81 168.68Q76.62 169.18 74.75 169.62Q72.87 170.06 71.81 170.43Z" fill="#A174BC" fill-opacity="1.000000" fill-rule="evenodd"/>
	</g>
	<g style="mix-blend-mode:normal">
		<path id="Chevron" d="M186.97 156.94L196.48 161.3C196.88 161.49 197.05 161.96 196.86 162.35L192.39 171.81C192.11 172.39 191.42 172.64 190.84 172.37C190.26 172.11 190.02 171.42 190.29 170.85L190.29 170.85C192.4 166.39 190.46 161.08 185.98 159.02C185.41 158.76 185.16 158.07 185.43 157.5C185.7 156.92 186.39 156.67 186.97 156.94Z" fill="#50BEE9" fill-opacity="1.000000" fill-rule="nonzero"/>
	</g>
	<g style="mix-blend-mode:normal">
		<path id="Chevron" d="M6.81 171.83L4.04 161.74C3.93 161.32 4.18 160.88 4.6 160.77L14.73 158.13C15.34 157.96 15.98 158.33 16.15 158.95C16.32 159.56 15.95 160.19 15.34 160.35L15.34 160.35C10.57 161.6 7.74 166.5 9.05 171.25C9.21 171.86 8.85 172.49 8.23 172.65C7.62 172.82 6.98 172.45 6.81 171.83Z" fill="#50BEE9" fill-opacity="1.000000" fill-rule="nonzero"/>
	</g>
</svg>
